<svg xmlns="http://www.w3.org/2000/svg" width="319" height="220" fill="none"><g clip-path="url(#a)"><path fill="#000" d="M35.992 47.038 16.232 21.09v25.947H3.525V.4h11.843l19.759 26.08V.4h12.641v46.638H35.992ZM69.46.398H55.62v46.639h13.84V.397ZM119.024 8.25l-7.984 9.447c-2.927-3.726-7.252-6.187-11.11-6.187-6.32 0-11.111 5.123-11.111 11.975 0 6.854 4.79 12.042 11.11 12.042 3.593 0 7.918-2.129 11.111-5.39l7.984 8.517c-5.057 5.455-12.708 8.982-19.76 8.982-14.17 0-24.617-10.247-24.617-24.017C74.647 10.045 85.292 0 99.73 0c7.052 0 14.57 3.193 19.294 8.25ZM170.655 23.685c0 13.704-10.778 23.95-25.415 23.95-14.637 0-25.415-10.178-25.415-23.95C119.823 9.979 130.602 0 145.239 0c14.636 0 25.416 10.045 25.416 23.685Zm-36.659.066c0 7.052 5.323 12.308 11.443 12.308 6.122 0 11.045-5.256 11.045-12.308s-4.923-12.175-11.045-12.175c-6.187 0-11.443 5.123-11.443 12.175ZM185.16 41.248c0 3.727-2.595 6.32-6.321 6.32-3.659 0-6.254-2.593-6.254-6.32 0-3.659 2.594-6.186 6.254-6.186 3.726 0 6.321 2.528 6.321 6.186Z"/><path fill="#DD3545" d="M23.951 64.336c15.102 0 25.081 9.249 25.081 23.287 0 14.038-10.179 23.352-25.548 23.352H3.524V64.336h20.427Zm-6.586 35.795h6.986c6.32 0 10.578-4.924 10.578-12.376 0-7.518-4.591-12.507-11.244-12.507h-6.32v24.883ZM101.993 87.623c0 13.705-10.779 23.951-25.415 23.951-14.637 0-25.415-10.179-25.415-23.951 0-13.706 10.778-23.685 25.415-23.685 14.636 0 25.415 10.045 25.415 23.685Zm-36.659.066c0 7.052 5.322 12.31 11.443 12.31 6.122 0 11.044-5.26 11.044-12.31 0-7.05-4.922-12.175-11.044-12.175-6.187 0-11.443 5.123-11.443 12.175ZM121.022 64.336h-13.839v46.637h13.839V64.336ZM161.34 110.975l-19.76-25.946v25.946h-12.706V64.337h11.841l19.76 26.08v-26.08h12.641v46.638H161.34ZM223.348 86.825v18.762c-5.056 3.459-13.304 5.988-19.958 5.988-14.438 0-25.082-10.179-25.082-23.884 0-13.64 10.977-23.75 26.014-23.75 7.119 0 14.769 2.727 19.692 7.051l-7.85 9.514c-3.193-3.061-7.85-5.057-11.91-5.057-6.718 0-11.775 5.257-11.775 12.242 0 7.119 5.124 12.309 11.91 12.309 1.927 0 4.523-.666 7.052-1.797V86.826l11.907-.001ZM27.41 139.32v35.593H13.506V139.32H0v-11.045h40.982v11.045H27.41ZM75.713 174.913v-17.364H59.146v17.364H45.308v-46.638h13.838v18.563h16.567v-18.563H89.55v46.638H75.713ZM111.242 138.92v7.318h22.021v10.645h-22.021v7.384h24.948v10.646H97.402v-46.638h38.124v10.645h-24.284ZM197.733 174.913l-7.452-29.739-7.584 29.739H168.46l-15.168-46.638h14.768l7.984 32.267 7.785-32.201 13.504-.066 7.983 32.267 7.786-32.267h14.17l-15.301 46.638h-14.238ZM244.639 138.92v7.318h22.023v10.645h-22.023v7.384h24.95v10.646h-38.788v-46.638h38.123v10.645h-24.285ZM299.13 128.275c10.911 0 17.898 4.591 17.898 11.775 0 4.724-3.061 8.649-7.917 10.046 5.72 1.198 9.378 5.854 9.378 11.776 0 7.984-7.183 13.04-18.361 13.04h-23.885v-46.638h22.887v.001Zm-9.114 18.296h8.384c2.727 0 4.457-1.597 4.457-4.061 0-2.392-1.73-3.856-4.457-3.856h-8.384v7.917Zm0 18.03h8.384c3.525 0 5.72-1.73 5.72-4.457 0-2.529-2.195-4.125-5.72-4.125h-8.384v8.582Z"/><path fill="#000" d="M4.165 196.745h3.214l3.424 10.324 3.638-10.324h2.244l3.64 10.324 3.425-10.324h3.212l-5.481 16.537h-2.245l-3.683-10.465-3.663 10.465H9.647l-5.482-16.537ZM37.434 211.462c-1.11 1.324-2.93 2.055-4.701 2.055-3.426 0-6-2.362-6-5.952 0-3.19 2.173-5.977 5.574-5.977 3.165 0 5.41 2.67 5.41 5.859 0 .307-.023.614-.071.874h-7.937c.165 1.607 1.465 2.717 3.095 2.717 1.3 0 2.337-.733 2.882-1.323l1.748 1.747Zm-2.859-5.385c-.094-1.016-1.016-2.008-2.268-2.008-1.276 0-2.315.968-2.456 2.008h4.724ZM39.73 213.282V196.51h3.07v6.141c.897-.709 1.985-1.063 3.236-1.063 3.119 0 5.623 2.597 5.623 5.977 0 1.559-.566 2.977-1.465 4.016-1.015 1.181-2.622 1.937-4.323 1.937-1.157 0-2.245-.355-3.189-1.158v.922H39.73Zm3.07-4.017a3.355 3.355 0 0 0 2.764 1.417c1.725 0 3.024-1.322 3.024-3.118 0-1.654-1.158-3.142-2.953-3.142a3.522 3.522 0 0 0-2.835 1.417v3.426ZM64.775 196.745c2.622 0 4.347.567 5.694 1.558 2.031 1.511 3.283 3.969 3.283 6.71s-1.252 5.197-3.283 6.71c-1.347.992-3.072 1.558-5.694 1.558h-5.197v-16.536h5.197Zm4.583 4.678c-.922-1.158-2.267-1.843-4.229-1.843h-2.362v10.867h2.362c1.962 0 3.307-.685 4.23-1.843.756-.945 1.203-2.221 1.203-3.591 0-1.371-.447-2.645-1.204-3.59ZM85.876 211.462c-1.11 1.324-2.93 2.055-4.7 2.055-3.427 0-6.001-2.362-6.001-5.952 0-3.19 2.173-5.977 5.575-5.977 3.165 0 5.41 2.67 5.41 5.859 0 .307-.024.614-.072.874h-7.937c.166 1.607 1.465 2.717 3.095 2.717 1.3 0 2.338-.733 2.882-1.323l1.748 1.747Zm-2.859-5.385c-.094-1.016-1.016-2.008-2.267-2.008-1.276 0-2.316.968-2.457 2.008h4.724ZM92.73 208.817l3.14-6.992h3.19l-5.268 11.457h-2.126l-5.268-11.457h3.19l3.141 6.992ZM105.325 196.273l-2.836 3.78h-2.125l1.653-3.78h3.308ZM116.783 213.282c-.402.141-1.322.235-1.913.235-1.842 0-3.19-.614-3.968-1.653-.591-.78-.851-1.796-.851-3.426v-4.015h-3.189v-2.598h3.189v-3.19h3.071v3.19h3.78v2.598h-3.78v4.369c0 .71.118 1.135.378 1.442.307.354.804.567 1.559.567.448 0 1.039-.071 1.253-.119l.471 2.6ZM125.647 213.282l7.68-16.537h2.834l-7.679 16.537h-2.835ZM135.809 213.282l7.679-16.537h2.834l-7.679 16.537h-2.834ZM167.232 205.84h-8.268v7.442h-3.189v-16.537h3.189v6.26h8.268v-6.26h3.19v16.537h-3.19v-7.442ZM178.647 201.588c3.473 0 6.096 2.67 6.096 5.977 0 3.307-2.623 5.954-6.096 5.954s-6.095-2.647-6.095-5.954 2.622-5.977 6.095-5.977Zm0 9.095c1.796 0 3.024-1.393 3.024-3.118 0-1.724-1.228-3.142-3.024-3.142s-3.024 1.417-3.024 3.142c0 1.725 1.228 3.118 3.024 3.118ZM187.11 209.785c.78.708 1.985 1.135 3.142 1.135.827 0 1.465-.402 1.465-.97 0-1.722-5.552-1.109-5.552-4.795 0-2.197 2.127-3.566 4.393-3.566 1.491 0 3.12.566 3.876 1.156l-1.441 2.221c-.59-.425-1.371-.779-2.197-.779-.851 0-1.559.332-1.559.921 0 1.489 5.552.898 5.552 4.867 0 2.196-2.15 3.544-4.56 3.544-1.583 0-3.26-.543-4.607-1.535l1.488-2.199ZM205.184 213.282c-.401.141-1.322.235-1.914.235-1.843 0-3.19-.614-3.968-1.653-.59-.78-.85-1.796-.85-3.426v-4.015h-3.189v-2.598h3.189v-3.19h3.071v3.19h3.78v2.598h-3.781v4.369c0 .71.119 1.135.378 1.442.308.354.803.567 1.56.567.447 0 1.039-.071 1.251-.119l.473 2.6ZM209.205 195.801c1.108 0 2.007.849 2.007 1.961 0 1.11-.898 1.96-2.007 1.96-1.112 0-2.01-.849-2.01-1.96 0-1.112.898-1.961 2.01-1.961Zm1.535 17.481h-3.073v-11.459h3.073v11.459ZM213.694 213.282v-11.458h2.953v.921a5.057 5.057 0 0 1 3.236-1.157c1.584 0 3.024.71 3.969 1.843.755.898 1.182 2.056 1.182 4.016v5.835h-3.072v-6.071c0-1.134-.26-1.724-.685-2.15-.402-.401-1.017-.638-1.725-.638-1.299 0-2.362.826-2.786 1.417v7.441h-3.072v.001ZM238.74 212.643c0 2.056-.355 3.286-1.041 4.253-1.04 1.441-2.882 2.292-5.08 2.292-2.243 0-4.369-1.041-5.504-2.363l1.937-2.008c.615.66 1.678 1.653 3.567 1.653.993 0 1.819-.306 2.339-.92.473-.521.708-1.23.708-2.693v-.379c-.921.708-1.913 1.039-3.07 1.039-1.702 0-3.332-.755-4.347-1.936-.897-1.04-1.441-2.457-1.441-4.016 0-3.378 2.504-5.977 5.621-5.977 1.301 0 2.458.426 3.355 1.157v-.921h2.953v10.819h.003Zm-3.072-6.803a3.526 3.526 0 0 0-2.836-1.417c-1.794 0-2.951 1.488-2.951 3.142 0 1.796 1.3 3.118 3.024 3.118a3.355 3.355 0 0 0 2.764-1.417v-3.426h-.001ZM248.077 213.282l7.677-16.537h2.834l-7.676 16.537h-2.835ZM258.237 213.282l7.677-16.537h2.835l-7.678 16.537h-2.834ZM278.156 208.864c.945 1.04 2.386 1.818 3.898 1.818 1.417 0 2.412-.873 2.412-2.078 0-2.125-3.072-2.386-5.292-3.685-1.301-.756-2.339-1.891-2.339-3.756 0-2.953 2.716-4.653 5.456-4.653 1.678 0 3.237.4 4.797 1.558l-1.655 2.363c-.661-.616-1.772-1.087-2.859-1.087-1.204 0-2.552.519-2.552 1.795 0 2.67 7.632 1.843 7.632 7.418 0 2.929-2.622 4.961-5.598 4.961-2.222 0-4.276-.921-5.977-2.48l2.077-2.174ZM292.972 199.58v3.426h5.079v2.834h-5.079v4.607h6.968v2.835h-10.158v-16.537h9.922v2.835h-6.732ZM309.276 196.51c5.103 0 8.622 3.803 8.622 8.504s-3.519 8.505-8.622 8.505-8.622-3.805-8.622-8.505c0-4.7 3.519-8.504 8.622-8.504Zm0 14.173c3.118 0 5.434-2.55 5.434-5.669 0-3.118-2.316-5.669-5.434-5.669-3.119 0-5.435 2.551-5.435 5.669 0 3.119 2.316 5.669 5.435 5.669Z"/></g><defs><clipPath id="a"><path fill="#fff" d="M0 0h318.489v219.188H0z"/></clipPath></defs></svg>